<svg width="720" height="560" viewBox="0 0 720 560" fill="none" xmlns="http://www.w3.org/2000/svg">
  <rect width="720" height="560" rx="28" fill="#121810"/>
  <rect x="24" y="24" width="672" height="512" rx="24" fill="#171F14" stroke="#2E3A2B"/>
  <rect x="54" y="54" width="612" height="76" rx="20" fill="#11170F"/>
  <rect x="80" y="80" width="126" height="12" rx="6" fill="#2E3A2B"/>
  <rect x="80" y="102" width="88" height="10" rx="5" fill="#212C1F"/>
  <rect x="54" y="156" width="296" height="160" rx="22" fill="#11170F"/>
  <path d="M86 280C118 266 132 214 170 222C206 230 221 287 261 272C286 264 295 221 320 199" stroke="#DFFF4F" stroke-width="10" stroke-linecap="round"/>
  <circle cx="86" cy="280" r="8" fill="#DFFF4F"/>
  <circle cx="320" cy="199" r="8" fill="#DFFF4F"/>
  <rect x="370" y="156" width="296" height="160" rx="22" fill="#11170F"/>
  <rect x="402" y="194" width="86" height="86" rx="18" fill="#1F291C"/>
  <text x="516" y="220" fill="#9CA99A" font-family="Arial, sans-serif" font-size="14" letter-spacing="3">AVERAGE</text>
  <text x="516" y="266" fill="#F3F8EE" font-family="Arial, sans-serif" font-size="34" font-weight="700">128</text>
  <text x="603" y="266" fill="#9CA99A" font-family="Arial, sans-serif" font-size="16">km/h</text>
  <rect x="54" y="340" width="192" height="150" rx="22" fill="#11170F"/>
  <rect x="264" y="340" width="192" height="150" rx="22" fill="#11170F"/>
  <rect x="474" y="340" width="192" height="150" rx="22" fill="#11170F"/>
  <text x="84" y="390" fill="#9CA99A" font-family="Arial, sans-serif" font-size="14" letter-spacing="3">TOP</text>
  <text x="84" y="438" fill="#F3F8EE" font-family="Arial, sans-serif" font-size="36" font-weight="700">214</text>
  <text x="154" y="438" fill="#9CA99A" font-family="Arial, sans-serif" font-size="16">km/h</text>
  <text x="294" y="390" fill="#9CA99A" font-family="Arial, sans-serif" font-size="14" letter-spacing="3">DISTANCE</text>
  <text x="294" y="438" fill="#F3F8EE" font-family="Arial, sans-serif" font-size="36" font-weight="700">84.6</text>
  <text x="382" y="438" fill="#9CA99A" font-family="Arial, sans-serif" font-size="16">km</text>
  <text x="504" y="390" fill="#9CA99A" font-family="Arial, sans-serif" font-size="14" letter-spacing="3">CONSISTENCY</text>
  <text x="504" y="438" fill="#F3F8EE" font-family="Arial, sans-serif" font-size="36" font-weight="700">96%</text>
</svg>
