<svg width="115" height="55" viewBox="0 0 115 55" fill="none" xmlns="http://www.w3.org/2000/svg">
<path d="M39.4831 2.10956L86.9944 2.00012C88.7755 1.99602 89.6731 4.14683 88.4175 5.41006L58.8793 35.1269C57.6238 36.3901 58.5212 38.5407 60.3022 38.5369L86.9795 38.4788C88.7627 38.4749 89.6591 40.6301 88.3991 41.892L77.4427 52.864M39.4831 2.10956L2 2.1959M39.4831 2.10956L28.5699 13.0887C27.3143 14.352 28.2119 16.5028 29.993 16.4987L54.697 16.4418C56.4781 16.4377 57.3757 18.5885 56.12 19.8517L26.5825 49.568C25.3269 50.8312 26.2245 52.982 28.0056 52.9779L77.4427 52.864M77.4427 52.864L113 52.7821" stroke="#D9FF3F" stroke-width="4" stroke-linecap="round"/>
</svg>
